<svg preserveAspectRatio="none" overflow="visible" style="display: block;" width="72.673" height="220.789" viewBox="0 0 72.673 220.789" fill="none" xmlns="http://www.w3.org/2000/svg">
<path id="Vector" d="M50.7071 199.905L49.8168 186.889L49.1618 179.9C49.0402 178.591 48.7657 177.018 48.4147 176.201C48.1636 175.619 47.3459 175.487 47.0165 176.646C46.8655 177.18 46.8302 178.189 46.8714 179.005L47.4793 190.971L47.5616 196.429C47.6303 200.92 47.5518 205.291 47.4087 209.818C47.2498 214.813 46.3811 218.968 44.679 219.436C43.62 219.725 42.2748 219.568 41.9806 216.939C41.457 212.249 43.0886 209.386 43.0415 205.015C43.0003 201.22 42.8082 197.594 42.5473 193.901C42.2277 189.362 41.9787 184.961 41.3531 180.656C40.9727 178.033 39.9412 175.661 38.996 175.649L33.7915 175.607C33.1914 175.607 32.5619 176.087 32.0286 176.796C31.6246 177.336 31.4324 178.729 31.3853 179.978L31.201 184.931L31.6795 204.696C31.7697 208.443 31.7168 212.141 31.2324 215.582C31.0716 216.728 30.7029 218.049 30.4147 218.932C29.8264 220.727 27.4104 221.958 26.5907 219.046C26.2769 217.929 26.2083 216.41 26.2887 214.903L26.8162 210.37C27.0162 206.101 26.7633 202.055 26.5495 197.876C26.3221 193.451 26.1044 189.176 25.6886 184.883C25.2925 180.788 24.2708 177.462 23.6786 179.468C23.41 180.38 23.3237 181.893 23.3943 183.154C23.8316 191.007 24.4983 206.047 23.7551 212.478C23.406 215.492 22.4667 218.019 21.4411 218.668C21.0156 218.938 20.3861 218.794 20.0018 218.704C19.8351 218.662 19.5017 218.169 19.3546 218.013C18.4388 217.047 18.4133 213.576 18.8408 211.163C19.2683 208.749 19.2899 206.582 19.1232 204.066L18.4643 194.141L17.4191 180.788L12.446 131.477C11.5969 123.06 10.3615 115.273 8.9829 107.599C8.21811 103.343 6.94739 100.263 5.65509 97.7348L3.25483 93.0337C2.64692 91.8389 2.12334 90.2779 1.6527 88.6748C0.499629 84.7662 -0.0494547 80.1191 0.00349224 74.8655C0.0289852 72.1998 0.0191802 69.6601 0.297642 67.1444L0.846722 62.2031C0.974187 61.0623 1.30756 60.1137 1.71741 59.8735L4.59811 58.1564L6.96308 55.8388C8.58286 54.2537 10.285 49.3785 11.0302 44.7974L12.0676 38.4151L13.1363 25.6746L13.2069 22.3904C13.2736 19.3704 12.0009 20.8054 10.7086 19.5745C10.032 18.9261 9.6163 17.0228 9.68886 14.8794C9.99282 5.93341 13.5442 -0.244724 16.4288 0.00744457C17.9054 0.229593 19.2193 1.8867 20.241 5.09885C20.9548 9.57185 21.2274 14.3871 21.1372 19.4004C21.3313 22.2944 20.9371 25.2844 21.9255 25.8247L24.416 27.1996C26.3652 28.2744 28.2242 29.4812 30.1617 30.8621C30.6127 31.1803 31.3559 30.718 31.5461 29.3071C32.0835 25.3144 32.3207 21.1296 32.609 16.9268L32.9541 11.9254C33.1777 8.67124 33.5071 5.53715 33.9856 2.56516C34.1876 1.31032 34.7681 1.25628 35.1426 1.14821C37.1958 0.541802 38.4312 6.32968 39.3529 11.3851C40.3844 17.0408 40.7472 24.2457 40.8844 30.778L40.9609 34.3985L41.0158 38.8955L41.0393 47.6013L40.955 57.4839L40.9746 64.6587L41.0217 69.7981L41.0609 81.9683L41.0982 88.987C41.1256 94.2645 41.6453 99.7702 43.2553 101.752L45.2104 104.153C47.2518 106.213 49.3736 107.233 51.5228 107.888L53.0093 108.338C55.288 109.034 57.4764 107.053 59.659 105.234L63.4045 101.355C64.9047 99.8002 66.2107 97.4226 67.5756 94.8829C69.2522 91.7669 70.7759 88.3326 71.9525 83.3612C72.0172 83.085 72.2388 82.7068 72.3447 82.6888C72.9801 82.5987 72.5742 90.0017 72.127 93.8442L71.4034 100.052C71.1779 101.986 70.5935 103.301 70.066 104.934L70.7759 104.405C70.923 104.279 71.1309 104.081 71.2407 104.135C71.3681 104.195 71.4348 105.288 71.4015 105.66L71.3426 106.297C71.021 108.386 70.4171 111.136 69.6248 111.934L67.858 113.724L67.8501 114.078C68.3325 113.802 68.6718 113.67 69.1091 113.736C69.2483 115.999 68.8384 117.548 68.3129 118.749C67.5461 120.502 66.75 121.931 65.8244 122.814L64.3282 124.231C62.3083 126.146 60.3218 127.413 58.1863 127.713C57.5549 127.803 56.8215 128.181 56.2665 128.932L55.4919 129.982L55.2919 138.91L55.3566 149.568L55.4527 154.377L55.7723 167.658L55.9115 176.243L56.0018 182.542L56.0782 188.846L56.0645 198.59L55.992 204.865C55.9449 209.013 55.7449 213.114 55.033 216.596C54.4232 219.586 53.5172 220.667 52.3955 220.661C52.0484 220.661 51.715 220.955 51.3542 220.589C50.7522 219.977 50.256 218.998 50.2227 216.765C50.1697 213.3 51.0365 210.67 51.0326 208.659C51.0287 205.687 50.9051 202.925 50.7012 199.935L50.7071 199.905ZM15.4915 60.576C16.0896 62.8035 17.0289 64.0103 17.9231 64.2925C18.5389 64.4846 19.1409 64.2564 19.7449 63.9682C21.0274 63.3558 22.0647 60.9542 22.5138 57.0756C23.0923 52.0863 22.8393 46.2924 21.849 41.8554C21.4588 40.1023 19.3115 36.3798 18.3761 37.8268C19.5546 38.4091 20.2743 41.2851 20.3724 44.8815C20.4469 47.6253 20.2959 50.117 19.6527 52.0923C18.6075 55.2984 17.2171 55.4365 16.066 52.6807C15.5405 51.4199 15.2581 49.2284 15.3444 47.3071L15.5679 42.3538C15.1816 43.7887 15.0914 45.3498 14.911 47.121C14.4521 51.624 14.4404 56.6794 15.4895 60.588L15.4915 60.576ZM26.4927 60.7801C26.5123 63.9502 26.9182 67.2524 27.7183 69.1137C28.9714 72.0316 30.5833 72.1157 32.0462 71.059C32.8463 70.4826 33.4326 69.3779 33.8797 67.2945C34.7994 62.9896 34.9387 57.7481 34.3131 52.9088C34.1053 51.2878 33.8405 49.6186 33.4169 48.4779C32.6012 46.2744 31.5971 44.9535 30.5186 45.2958C32.3247 47.8114 32.5266 56.0069 31.4285 59.4112C30.7304 61.5847 29.8479 62.2391 28.9321 61.6327C28.1164 61.0923 27.5085 59.4652 27.3065 56.8955C27.1417 54.8121 27.2751 52.7828 27.4124 50.5132C26.8143 52.1644 26.473 57.8201 26.4927 60.7861V60.7801Z" fill="#FECE00"/>
</svg>
